<svg width="1118" height="942" viewBox="0 0 1118 942" fill="none" xmlns="http://www.w3.org/2000/svg">
<rect x="281" width="567" height="861" rx="24" fill="url(#paint0_linear_71_48)"/>
<rect x="358" y="71" width="413" height="704" rx="18" fill="white"/>
<circle cx="632" cy="104" r="14" fill="#E60D0D"/>
<circle cx="673" cy="104" r="14" fill="#DEB513"/>
<circle cx="714" cy="104" r="14" fill="#2E8B41"/>
<path d="M406.852 168.62V173.52H413.432V176.628H406.852V181.808H414.272V185H402.932V165.428H414.272V168.62H406.852ZM426.43 169.264C428.278 169.264 429.772 169.852 430.91 171.028C432.049 172.185 432.618 173.809 432.618 175.9V185H428.698V176.432C428.698 175.2 428.39 174.257 427.774 173.604C427.158 172.932 426.318 172.596 425.254 172.596C424.172 172.596 423.313 172.932 422.678 173.604C422.062 174.257 421.754 175.2 421.754 176.432V185H417.834V169.488H421.754V171.42C422.277 170.748 422.94 170.225 423.742 169.852C424.564 169.46 425.46 169.264 426.43 169.264ZM442.422 169.236C443.579 169.236 444.597 169.469 445.474 169.936C446.351 170.384 447.042 170.972 447.546 171.7V169.488H451.494V185.112C451.494 186.549 451.205 187.828 450.626 188.948C450.047 190.087 449.179 190.983 448.022 191.636C446.865 192.308 445.465 192.644 443.822 192.644C441.619 192.644 439.809 192.131 438.39 191.104C436.99 190.077 436.197 188.677 436.01 186.904H439.902C440.107 187.613 440.546 188.173 441.218 188.584C441.909 189.013 442.739 189.228 443.71 189.228C444.849 189.228 445.773 188.883 446.482 188.192C447.191 187.52 447.546 186.493 447.546 185.112V182.704C447.042 183.432 446.342 184.039 445.446 184.524C444.569 185.009 443.561 185.252 442.422 185.252C441.115 185.252 439.921 184.916 438.838 184.244C437.755 183.572 436.897 182.629 436.262 181.416C435.646 180.184 435.338 178.775 435.338 177.188C435.338 175.62 435.646 174.229 436.262 173.016C436.897 171.803 437.746 170.869 438.81 170.216C439.893 169.563 441.097 169.236 442.422 169.236ZM447.546 177.244C447.546 176.292 447.359 175.48 446.986 174.808C446.613 174.117 446.109 173.595 445.474 173.24C444.839 172.867 444.158 172.68 443.43 172.68C442.702 172.68 442.03 172.857 441.414 173.212C440.798 173.567 440.294 174.089 439.902 174.78C439.529 175.452 439.342 176.255 439.342 177.188C439.342 178.121 439.529 178.943 439.902 179.652C440.294 180.343 440.798 180.875 441.414 181.248C442.049 181.621 442.721 181.808 443.43 181.808C444.158 181.808 444.839 181.631 445.474 181.276C446.109 180.903 446.613 180.38 446.986 179.708C447.359 179.017 447.546 178.196 447.546 177.244ZM454.315 177.188C454.315 175.62 454.623 174.229 455.239 173.016C455.873 171.803 456.723 170.869 457.787 170.216C458.869 169.563 460.073 169.236 461.399 169.236C462.556 169.236 463.564 169.469 464.423 169.936C465.3 170.403 466 170.991 466.523 171.7V169.488H470.471V185H466.523V182.732C466.019 183.46 465.319 184.067 464.423 184.552C463.545 185.019 462.528 185.252 461.371 185.252C460.064 185.252 458.869 184.916 457.787 184.244C456.723 183.572 455.873 182.629 455.239 181.416C454.623 180.184 454.315 178.775 454.315 177.188ZM466.523 177.244C466.523 176.292 466.336 175.48 465.963 174.808C465.589 174.117 465.085 173.595 464.451 173.24C463.816 172.867 463.135 172.68 462.407 172.68C461.679 172.68 461.007 172.857 460.391 173.212C459.775 173.567 459.271 174.089 458.879 174.78C458.505 175.452 458.319 176.255 458.319 177.188C458.319 178.121 458.505 178.943 458.879 179.652C459.271 180.343 459.775 180.875 460.391 181.248C461.025 181.621 461.697 181.808 462.407 181.808C463.135 181.808 463.816 181.631 464.451 181.276C465.085 180.903 465.589 180.38 465.963 179.708C466.336 179.017 466.523 178.196 466.523 177.244ZM480.375 169.236C481.533 169.236 482.55 169.469 483.427 169.936C484.305 170.384 484.995 170.972 485.499 171.7V169.488H489.447V185.112C489.447 186.549 489.158 187.828 488.579 188.948C488.001 190.087 487.133 190.983 485.975 191.636C484.818 192.308 483.418 192.644 481.775 192.644C479.573 192.644 477.762 192.131 476.343 191.104C474.943 190.077 474.15 188.677 473.963 186.904H477.855C478.061 187.613 478.499 188.173 479.171 188.584C479.862 189.013 480.693 189.228 481.663 189.228C482.802 189.228 483.726 188.883 484.435 188.192C485.145 187.52 485.499 186.493 485.499 185.112V182.704C484.995 183.432 484.295 184.039 483.399 184.524C482.522 185.009 481.514 185.252 480.375 185.252C479.069 185.252 477.874 184.916 476.791 184.244C475.709 183.572 474.85 182.629 474.215 181.416C473.599 180.184 473.291 178.775 473.291 177.188C473.291 175.62 473.599 174.229 474.215 173.016C474.85 171.803 475.699 170.869 476.763 170.216C477.846 169.563 479.05 169.236 480.375 169.236ZM485.499 177.244C485.499 176.292 485.313 175.48 484.939 174.808C484.566 174.117 484.062 173.595 483.427 173.24C482.793 172.867 482.111 172.68 481.383 172.68C480.655 172.68 479.983 172.857 479.367 173.212C478.751 173.567 478.247 174.089 477.855 174.78C477.482 175.452 477.295 176.255 477.295 177.188C477.295 178.121 477.482 178.943 477.855 179.652C478.247 180.343 478.751 180.875 479.367 181.248C480.002 181.621 480.674 181.808 481.383 181.808C482.111 181.808 482.793 181.631 483.427 181.276C484.062 180.903 484.566 180.38 484.939 179.708C485.313 179.017 485.499 178.196 485.499 177.244ZM507.696 176.908C507.696 177.468 507.658 177.972 507.584 178.42H496.244C496.337 179.54 496.729 180.417 497.42 181.052C498.11 181.687 498.96 182.004 499.968 182.004C501.424 182.004 502.46 181.379 503.076 180.128H507.304C506.856 181.621 505.997 182.853 504.728 183.824C503.458 184.776 501.9 185.252 500.052 185.252C498.558 185.252 497.214 184.925 496.02 184.272C494.844 183.6 493.92 182.657 493.248 181.444C492.594 180.231 492.268 178.831 492.268 177.244C492.268 175.639 492.594 174.229 493.248 173.016C493.901 171.803 494.816 170.869 495.992 170.216C497.168 169.563 498.521 169.236 500.052 169.236C501.526 169.236 502.842 169.553 504 170.188C505.176 170.823 506.081 171.728 506.716 172.904C507.369 174.061 507.696 175.396 507.696 176.908ZM503.636 175.788C503.617 174.78 503.253 173.977 502.544 173.38C501.834 172.764 500.966 172.456 499.94 172.456C498.969 172.456 498.148 172.755 497.476 173.352C496.822 173.931 496.421 174.743 496.272 175.788H503.636ZM529.821 169.264C531.725 169.264 533.256 169.852 534.413 171.028C535.589 172.185 536.177 173.809 536.177 175.9V185H532.257V176.432C532.257 175.219 531.949 174.295 531.333 173.66C530.717 173.007 529.877 172.68 528.813 172.68C527.749 172.68 526.9 173.007 526.265 173.66C525.649 174.295 525.341 175.219 525.341 176.432V185H521.421V176.432C521.421 175.219 521.113 174.295 520.497 173.66C519.881 173.007 519.041 172.68 517.977 172.68C516.894 172.68 516.036 173.007 515.401 173.66C514.785 174.295 514.477 175.219 514.477 176.432V185H510.557V169.488H514.477V171.364C514.981 170.711 515.625 170.197 516.409 169.824C517.212 169.451 518.089 169.264 519.041 169.264C520.254 169.264 521.337 169.525 522.289 170.048C523.241 170.552 523.978 171.28 524.501 172.232C525.005 171.336 525.733 170.617 526.685 170.076C527.656 169.535 528.701 169.264 529.821 169.264ZM554.317 176.908C554.317 177.468 554.28 177.972 554.205 178.42H542.865C542.958 179.54 543.35 180.417 544.041 181.052C544.732 181.687 545.581 182.004 546.589 182.004C548.045 182.004 549.081 181.379 549.697 180.128H553.925C553.477 181.621 552.618 182.853 551.349 183.824C550.08 184.776 548.521 185.252 546.673 185.252C545.18 185.252 543.836 184.925 542.641 184.272C541.465 183.6 540.541 182.657 539.869 181.444C539.216 180.231 538.889 178.831 538.889 177.244C538.889 175.639 539.216 174.229 539.869 173.016C540.522 171.803 541.437 170.869 542.613 170.216C543.789 169.563 545.142 169.236 546.673 169.236C548.148 169.236 549.464 169.553 550.621 170.188C551.797 170.823 552.702 171.728 553.337 172.904C553.99 174.061 554.317 175.396 554.317 176.908ZM550.257 175.788C550.238 174.78 549.874 173.977 549.165 173.38C548.456 172.764 547.588 172.456 546.561 172.456C545.59 172.456 544.769 172.755 544.097 173.352C543.444 173.931 543.042 174.743 542.893 175.788H550.257ZM565.774 169.264C567.622 169.264 569.115 169.852 570.254 171.028C571.393 172.185 571.962 173.809 571.962 175.9V185H568.042V176.432C568.042 175.2 567.734 174.257 567.118 173.604C566.502 172.932 565.662 172.596 564.598 172.596C563.515 172.596 562.657 172.932 562.022 173.604C561.406 174.257 561.098 175.2 561.098 176.432V185H557.178V169.488H561.098V171.42C561.621 170.748 562.283 170.225 563.086 169.852C563.907 169.46 564.803 169.264 565.774 169.264ZM580.254 172.708V180.212C580.254 180.735 580.375 181.117 580.618 181.36C580.879 181.584 581.308 181.696 581.906 181.696H583.726V185H581.262C577.958 185 576.306 183.395 576.306 180.184V172.708H574.458V169.488H576.306V165.652H580.254V169.488H583.726V172.708H580.254Z" fill="black"/>
<path d="M417.54 277.964C417.633 276.097 418.287 274.66 419.5 273.652C420.732 272.625 422.347 272.112 424.344 272.112C425.707 272.112 426.873 272.355 427.844 272.84C428.815 273.307 429.543 273.951 430.028 274.772C430.532 275.575 430.784 276.489 430.784 277.516C430.784 278.692 430.476 279.691 429.86 280.512C429.263 281.315 428.544 281.856 427.704 282.136V282.248C428.787 282.584 429.627 283.181 430.224 284.04C430.84 284.899 431.148 286 431.148 287.344C431.148 288.464 430.887 289.463 430.364 290.34C429.86 291.217 429.104 291.908 428.096 292.412C427.107 292.897 425.912 293.14 424.512 293.14C422.403 293.14 420.685 292.608 419.36 291.544C418.035 290.48 417.335 288.912 417.26 286.84H421.068C421.105 287.755 421.413 288.492 421.992 289.052C422.589 289.593 423.401 289.864 424.428 289.864C425.38 289.864 426.108 289.603 426.612 289.08C427.135 288.539 427.396 287.848 427.396 287.008C427.396 285.888 427.041 285.085 426.332 284.6C425.623 284.115 424.521 283.872 423.028 283.872H422.216V280.652H423.028C425.679 280.652 427.004 279.765 427.004 277.992C427.004 277.189 426.761 276.564 426.276 276.116C425.809 275.668 425.128 275.444 424.232 275.444C423.355 275.444 422.673 275.687 422.188 276.172C421.721 276.639 421.451 277.236 421.376 277.964H417.54ZM436.43 293.196C435.72 293.196 435.132 292.981 434.666 292.552C434.218 292.104 433.994 291.553 433.994 290.9C433.994 290.247 434.218 289.705 434.666 289.276C435.132 288.828 435.72 288.604 436.43 288.604C437.12 288.604 437.69 288.828 438.138 289.276C438.586 289.705 438.81 290.247 438.81 290.9C438.81 291.553 438.586 292.104 438.138 292.552C437.69 292.981 437.12 293.196 436.43 293.196ZM441.043 276.2V272.588H447.791V293H443.759V276.2H441.043ZM473.42 273.456V293H469.5V280.288L464.264 293H461.296L456.032 280.288V293H452.112V273.456H456.564L462.78 287.988L468.996 273.456H473.42Z" fill="black"/>
<path d="M539.008 276.2V272.588H545.756V293H541.724V276.2H539.008ZM549.629 282.528C549.629 279.299 550.207 276.769 551.365 274.94C552.541 273.111 554.482 272.196 557.189 272.196C559.895 272.196 561.827 273.111 562.985 274.94C564.161 276.769 564.749 279.299 564.749 282.528C564.749 285.776 564.161 288.324 562.985 290.172C561.827 292.02 559.895 292.944 557.189 292.944C554.482 292.944 552.541 292.02 551.365 290.172C550.207 288.324 549.629 285.776 549.629 282.528ZM560.885 282.528C560.885 281.147 560.791 279.989 560.605 279.056C560.437 278.104 560.082 277.329 559.541 276.732C559.018 276.135 558.234 275.836 557.189 275.836C556.143 275.836 555.35 276.135 554.809 276.732C554.286 277.329 553.931 278.104 553.745 279.056C553.577 279.989 553.493 281.147 553.493 282.528C553.493 283.947 553.577 285.141 553.745 286.112C553.913 287.064 554.267 287.839 554.809 288.436C555.35 289.015 556.143 289.304 557.189 289.304C558.234 289.304 559.027 289.015 559.569 288.436C560.11 287.839 560.465 287.064 560.633 286.112C560.801 285.141 560.885 283.947 560.885 282.528ZM579.21 293L572.098 284.292V293H568.178V273.456H572.098V282.22L579.21 273.456H583.942L575.878 283.144L584.166 293H579.21Z" fill="black"/>
<path d="M642.008 276.2V272.588H648.756V293H644.724V276.2H642.008ZM674.385 273.456V293H670.465V280.288L665.229 293H662.261L656.997 280.288V293H653.077V273.456H657.529L663.745 287.988L669.961 273.456H674.385Z" fill="black"/>
<path d="M431.92 240.04L426.8 254H423.4L418.28 240.04H421.28L425.12 251.14L428.94 240.04H431.92ZM435.019 241.6C434.525 241.6 434.112 241.447 433.779 241.14C433.459 240.82 433.299 240.427 433.299 239.96C433.299 239.493 433.459 239.107 433.779 238.8C434.112 238.48 434.525 238.32 435.019 238.32C435.512 238.32 435.919 238.48 436.239 238.8C436.572 239.107 436.739 239.493 436.739 239.96C436.739 240.427 436.572 240.82 436.239 241.14C435.919 241.447 435.512 241.6 435.019 241.6ZM436.399 242.92V254H433.599V242.92H436.399ZM449.465 248.22C449.465 248.62 449.438 248.98 449.385 249.3H441.285C441.352 250.1 441.632 250.727 442.125 251.18C442.618 251.633 443.225 251.86 443.945 251.86C444.985 251.86 445.725 251.413 446.165 250.52H449.185C448.865 251.587 448.252 252.467 447.345 253.16C446.438 253.84 445.325 254.18 444.005 254.18C442.938 254.18 441.978 253.947 441.125 253.48C440.285 253 439.625 252.327 439.145 251.46C438.678 250.593 438.445 249.593 438.445 248.46C438.445 247.313 438.678 246.307 439.145 245.44C439.612 244.573 440.265 243.907 441.105 243.44C441.945 242.973 442.912 242.74 444.005 242.74C445.058 242.74 445.998 242.967 446.825 243.42C447.665 243.873 448.312 244.52 448.765 245.36C449.232 246.187 449.465 247.14 449.465 248.22ZM446.565 247.42C446.552 246.7 446.292 246.127 445.785 245.7C445.278 245.26 444.658 245.04 443.925 245.04C443.232 245.04 442.645 245.253 442.165 245.68C441.698 246.093 441.412 246.673 441.305 247.42H446.565ZM466.869 242.92L463.629 254H460.609L458.589 246.26L456.569 254H453.529L450.269 242.92H453.109L455.069 251.36L457.189 242.92H460.149L462.229 251.34L464.189 242.92H466.869ZM472.624 254.18C471.717 254.18 470.904 254.02 470.184 253.7C469.464 253.367 468.891 252.92 468.464 252.36C468.051 251.8 467.824 251.18 467.784 250.5H470.604C470.657 250.927 470.864 251.28 471.224 251.56C471.597 251.84 472.057 251.98 472.604 251.98C473.137 251.98 473.551 251.873 473.844 251.66C474.151 251.447 474.304 251.173 474.304 250.84C474.304 250.48 474.117 250.213 473.744 250.04C473.384 249.853 472.804 249.653 472.004 249.44C471.177 249.24 470.497 249.033 469.964 248.82C469.444 248.607 468.991 248.28 468.604 247.84C468.231 247.4 468.044 246.807 468.044 246.06C468.044 245.447 468.217 244.887 468.564 244.38C468.924 243.873 469.431 243.473 470.084 243.18C470.751 242.887 471.531 242.74 472.424 242.74C473.744 242.74 474.797 243.073 475.584 243.74C476.371 244.393 476.804 245.28 476.884 246.4H474.204C474.164 245.96 473.977 245.613 473.644 245.36C473.324 245.093 472.891 244.96 472.344 244.96C471.837 244.96 471.444 245.053 471.164 245.24C470.897 245.427 470.764 245.687 470.764 246.02C470.764 246.393 470.951 246.68 471.324 246.88C471.697 247.067 472.277 247.26 473.064 247.46C473.864 247.66 474.524 247.867 475.044 248.08C475.564 248.293 476.011 248.627 476.384 249.08C476.771 249.52 476.971 250.107 476.984 250.84C476.984 251.48 476.804 252.053 476.444 252.56C476.097 253.067 475.591 253.467 474.924 253.76C474.271 254.04 473.504 254.18 472.624 254.18Z" fill="#636262"/>
<path d="M506.7 247C506.7 245.627 507.007 244.4 507.62 243.32C508.247 242.227 509.093 241.38 510.16 240.78C511.24 240.167 512.447 239.86 513.78 239.86C515.34 239.86 516.707 240.26 517.88 241.06C519.053 241.86 519.873 242.967 520.34 244.38H517.12C516.8 243.713 516.347 243.213 515.76 242.88C515.187 242.547 514.52 242.38 513.76 242.38C512.947 242.38 512.22 242.573 511.58 242.96C510.953 243.333 510.46 243.867 510.1 244.56C509.753 245.253 509.58 246.067 509.58 247C509.58 247.92 509.753 248.733 510.1 249.44C510.46 250.133 510.953 250.673 511.58 251.06C512.22 251.433 512.947 251.62 513.76 251.62C514.52 251.62 515.187 251.453 515.76 251.12C516.347 250.773 516.8 250.267 517.12 249.6H520.34C519.873 251.027 519.053 252.14 517.88 252.94C516.72 253.727 515.353 254.12 513.78 254.12C512.447 254.12 511.24 253.82 510.16 253.22C509.093 252.607 508.247 251.76 507.62 250.68C507.007 249.6 506.7 248.373 506.7 247ZM527.652 254.18C526.585 254.18 525.625 253.947 524.772 253.48C523.918 253 523.245 252.327 522.752 251.46C522.272 250.593 522.032 249.593 522.032 248.46C522.032 247.327 522.278 246.327 522.772 245.46C523.278 244.593 523.965 243.927 524.832 243.46C525.698 242.98 526.665 242.74 527.732 242.74C528.798 242.74 529.765 242.98 530.632 243.46C531.498 243.927 532.178 244.593 532.672 245.46C533.178 246.327 533.432 247.327 533.432 248.46C533.432 249.593 533.172 250.593 532.652 251.46C532.145 252.327 531.452 253 530.572 253.48C529.705 253.947 528.732 254.18 527.652 254.18ZM527.652 251.74C528.158 251.74 528.632 251.62 529.072 251.38C529.525 251.127 529.885 250.753 530.152 250.26C530.418 249.767 530.552 249.167 530.552 248.46C530.552 247.407 530.272 246.6 529.712 246.04C529.165 245.467 528.492 245.18 527.692 245.18C526.892 245.18 526.218 245.467 525.672 246.04C525.138 246.6 524.872 247.407 524.872 248.46C524.872 249.513 525.132 250.327 525.652 250.9C526.185 251.46 526.852 251.74 527.652 251.74ZM549.245 242.76C550.605 242.76 551.699 243.18 552.525 244.02C553.365 244.847 553.785 246.007 553.785 247.5V254H550.985V247.88C550.985 247.013 550.765 246.353 550.325 245.9C549.885 245.433 549.285 245.2 548.525 245.2C547.765 245.2 547.159 245.433 546.705 245.9C546.265 246.353 546.045 247.013 546.045 247.88V254H543.245V247.88C543.245 247.013 543.025 246.353 542.585 245.9C542.145 245.433 541.545 245.2 540.785 245.2C540.012 245.2 539.399 245.433 538.945 245.9C538.505 246.353 538.285 247.013 538.285 247.88V254H535.485V242.92H538.285V244.26C538.645 243.793 539.105 243.427 539.665 243.16C540.239 242.893 540.865 242.76 541.545 242.76C542.412 242.76 543.185 242.947 543.865 243.32C544.545 243.68 545.072 244.2 545.445 244.88C545.805 244.24 546.325 243.727 547.005 243.34C547.699 242.953 548.445 242.76 549.245 242.76ZM570.203 242.76C571.563 242.76 572.656 243.18 573.483 244.02C574.323 244.847 574.743 246.007 574.743 247.5V254H571.943V247.88C571.943 247.013 571.723 246.353 571.283 245.9C570.843 245.433 570.243 245.2 569.483 245.2C568.723 245.2 568.116 245.433 567.663 245.9C567.223 246.353 567.003 247.013 567.003 247.88V254H564.203V247.88C564.203 247.013 563.983 246.353 563.543 245.9C563.103 245.433 562.503 245.2 561.743 245.2C560.969 245.2 560.356 245.433 559.903 245.9C559.463 246.353 559.243 247.013 559.243 247.88V254H556.443V242.92H559.243V244.26C559.603 243.793 560.063 243.427 560.623 243.16C561.196 242.893 561.823 242.76 562.503 242.76C563.369 242.76 564.143 242.947 564.823 243.32C565.503 243.68 566.029 244.2 566.403 244.88C566.763 244.24 567.283 243.727 567.963 243.34C568.656 242.953 569.403 242.76 570.203 242.76ZM587.7 248.22C587.7 248.62 587.673 248.98 587.62 249.3H579.52C579.586 250.1 579.866 250.727 580.36 251.18C580.853 251.633 581.46 251.86 582.18 251.86C583.22 251.86 583.96 251.413 584.4 250.52H587.42C587.1 251.587 586.486 252.467 585.58 253.16C584.673 253.84 583.56 254.18 582.24 254.18C581.173 254.18 580.213 253.947 579.36 253.48C578.52 253 577.86 252.327 577.38 251.46C576.913 250.593 576.68 249.593 576.68 248.46C576.68 247.313 576.913 246.307 577.38 245.44C577.846 244.573 578.5 243.907 579.34 243.44C580.18 242.973 581.146 242.74 582.24 242.74C583.293 242.74 584.233 242.967 585.06 243.42C585.9 243.873 586.546 244.52 587 245.36C587.466 246.187 587.7 247.14 587.7 248.22ZM584.8 247.42C584.786 246.7 584.526 246.127 584.02 245.7C583.513 245.26 582.893 245.04 582.16 245.04C581.466 245.04 580.88 245.253 580.4 245.68C579.933 246.093 579.646 246.673 579.54 247.42H584.8ZM595.883 242.76C597.203 242.76 598.27 243.18 599.083 244.02C599.897 244.847 600.303 246.007 600.303 247.5V254H597.503V247.88C597.503 247 597.283 246.327 596.843 245.86C596.403 245.38 595.803 245.14 595.043 245.14C594.27 245.14 593.657 245.38 593.203 245.86C592.763 246.327 592.543 247 592.543 247.88V254H589.743V242.92H592.543V244.3C592.917 243.82 593.39 243.447 593.963 243.18C594.55 242.9 595.19 242.76 595.883 242.76ZM606.226 245.22V250.58C606.226 250.953 606.313 251.227 606.486 251.4C606.673 251.56 606.979 251.64 607.406 251.64H608.706V254H606.946C604.586 254 603.406 252.853 603.406 250.56V245.22H602.086V242.92H603.406V240.18H606.226V242.92H608.706V245.22H606.226Z" fill="#636262"/>
<path d="M642.18 251.78H646.78V254H639.38V240.04H642.18V251.78ZM649.98 241.6C649.486 241.6 649.073 241.447 648.74 241.14C648.42 240.82 648.26 240.427 648.26 239.96C648.26 239.493 648.42 239.107 648.74 238.8C649.073 238.48 649.486 238.32 649.98 238.32C650.473 238.32 650.88 238.48 651.2 238.8C651.533 239.107 651.7 239.493 651.7 239.96C651.7 240.427 651.533 240.82 651.2 241.14C650.88 241.447 650.473 241.6 649.98 241.6ZM651.36 242.92V254H648.56V242.92H651.36ZM660.686 254L656.926 249.28V254H654.126V239.2H656.926V247.62L660.646 242.92H664.286L659.406 248.48L664.326 254H660.686ZM676.106 248.22C676.106 248.62 676.079 248.98 676.026 249.3H667.926C667.992 250.1 668.272 250.727 668.766 251.18C669.259 251.633 669.866 251.86 670.586 251.86C671.626 251.86 672.366 251.413 672.806 250.52H675.826C675.506 251.587 674.892 252.467 673.986 253.16C673.079 253.84 671.966 254.18 670.646 254.18C669.579 254.18 668.619 253.947 667.766 253.48C666.926 253 666.266 252.327 665.786 251.46C665.319 250.593 665.086 249.593 665.086 248.46C665.086 247.313 665.319 246.307 665.786 245.44C666.252 244.573 666.906 243.907 667.746 243.44C668.586 242.973 669.552 242.74 670.646 242.74C671.699 242.74 672.639 242.967 673.466 243.42C674.306 243.873 674.952 244.52 675.406 245.36C675.872 246.187 676.106 247.14 676.106 248.22ZM673.206 247.42C673.192 246.7 672.932 246.127 672.426 245.7C671.919 245.26 671.299 245.04 670.566 245.04C669.872 245.04 669.286 245.253 668.806 245.68C668.339 246.093 668.052 246.673 667.946 247.42H673.206ZM677.43 248.42C677.43 247.3 677.65 246.307 678.09 245.44C678.543 244.573 679.156 243.907 679.93 243.44C680.703 242.973 681.563 242.74 682.51 242.74C683.23 242.74 683.916 242.9 684.57 243.22C685.223 243.527 685.743 243.94 686.13 244.46V239.2H688.97V254H686.13V252.36C685.783 252.907 685.296 253.347 684.67 253.68C684.043 254.013 683.316 254.18 682.49 254.18C681.556 254.18 680.703 253.94 679.93 253.46C679.156 252.98 678.543 252.307 678.09 251.44C677.65 250.56 677.43 249.553 677.43 248.42ZM686.15 248.46C686.15 247.78 686.016 247.2 685.75 246.72C685.483 246.227 685.123 245.853 684.67 245.6C684.216 245.333 683.73 245.2 683.21 245.2C682.69 245.2 682.21 245.327 681.77 245.58C681.33 245.833 680.97 246.207 680.69 246.7C680.423 247.18 680.29 247.753 680.29 248.42C680.29 249.087 680.423 249.673 680.69 250.18C680.97 250.673 681.33 251.053 681.77 251.32C682.223 251.587 682.703 251.72 683.21 251.72C683.73 251.72 684.216 251.593 684.67 251.34C685.123 251.073 685.483 250.7 685.75 250.22C686.016 249.727 686.15 249.14 686.15 248.46Z" fill="#636262"/>
<path d="M681.264 568.096C672.107 567.039 663.333 563.47 656.604 558.006C650.598 553.116 642.037 553.028 636.075 558.006C619.932 571.401 590.417 571.401 574.019 557.345C568.269 552.411 559.964 553.336 554.129 558.139C537.944 571.401 508.599 571.357 492.286 557.39C486.536 552.455 478.103 553.468 472.226 558.271C465.624 563.646 456.893 567.127 447.65 568.14C444.286 568.493 441.858 571.577 441.858 575.058V589.245C441.858 593.254 445.095 596.647 448.971 596.295C461.237 595.193 472.864 591.272 482.788 584.883C506.852 600.128 541.138 599.908 564.564 584.883C588.628 600.128 622.914 599.908 646.339 584.883C656.263 591.14 668.018 595.149 680.029 596.251C683.905 596.603 687.142 593.21 687.142 589.201V575.278C687.184 571.753 684.714 568.493 681.264 568.096ZM681.264 504.65C672.107 503.592 663.333 500.023 656.604 494.56C650.598 489.669 642.037 489.581 636.075 494.56C619.932 507.954 590.417 507.954 574.019 493.899C568.269 488.964 559.964 489.889 554.129 494.692C537.944 507.954 508.599 507.91 492.286 493.943C486.536 489.008 478.103 490.022 472.226 494.824C465.624 500.2 456.893 503.68 447.65 504.694C444.286 505.046 441.858 508.13 441.858 511.611V525.798C441.858 529.808 445.095 533.201 448.971 532.848C461.237 531.747 472.864 527.825 482.788 521.436C506.852 536.681 541.138 536.461 564.564 521.436C588.628 536.681 622.914 536.461 646.339 521.436C656.263 527.693 668.018 531.702 680.029 532.804C683.905 533.156 687.142 529.764 687.142 525.754V511.831C687.184 508.307 684.714 505.046 681.264 504.65ZM681.264 441.203C672.107 440.102 663.333 436.577 656.604 431.113C650.598 426.223 642.037 426.134 636.075 431.113C619.932 444.508 590.417 444.508 574.019 430.452C568.269 425.518 559.964 426.443 554.129 431.245C537.944 444.508 508.599 444.463 492.286 430.496C486.536 425.562 478.103 426.575 472.226 431.378C465.624 436.753 456.893 440.234 447.65 441.247C444.286 441.6 441.858 444.684 441.858 448.165V462.352C441.858 466.361 445.095 469.754 448.971 469.402C461.237 468.3 472.864 464.379 482.788 457.99C506.852 473.235 541.138 473.014 564.564 457.99C588.628 473.235 622.914 473.014 646.339 457.99C656.263 464.246 668.018 468.256 680.029 469.357C683.905 469.71 687.142 466.317 687.142 462.308V448.385C687.184 444.86 684.714 441.6 681.264 441.203Z" fill="black"/>
<rect x="792" y="139" width="325.437" height="113.858" rx="53.7913" fill="#74ABFF"/>
<path d="M882.399 207.046H868.441L866.132 213.723H858.752L871.353 178.63H879.537L892.138 213.723H884.708L882.399 207.046ZM880.491 201.423L875.42 186.763L870.349 201.423H880.491ZM907.743 185.458C909.818 185.458 911.642 185.876 913.215 186.713C914.789 187.516 916.027 188.57 916.931 189.876V185.909H924.01V213.924C924.01 216.501 923.491 218.794 922.453 220.802C921.416 222.844 919.859 224.45 917.784 225.622C915.709 226.827 913.199 227.429 910.253 227.429C906.304 227.429 903.057 226.509 900.514 224.668C898.003 222.827 896.581 220.317 896.246 217.137H903.225C903.593 218.409 904.379 219.413 905.584 220.149C906.823 220.919 908.312 221.304 910.053 221.304C912.094 221.304 913.751 220.685 915.023 219.446C916.295 218.242 916.931 216.401 916.931 213.924V209.606C916.027 210.912 914.772 211.999 913.165 212.87C911.592 213.74 909.785 214.175 907.743 214.175C905.4 214.175 903.258 213.572 901.317 212.368C899.376 211.163 897.836 209.472 896.698 207.297C895.593 205.088 895.041 202.561 895.041 199.716C895.041 196.904 895.593 194.411 896.698 192.235C897.836 190.06 899.359 188.386 901.267 187.215C903.208 186.043 905.367 185.458 907.743 185.458ZM916.931 199.816C916.931 198.109 916.596 196.653 915.927 195.448C915.257 194.21 914.353 193.273 913.215 192.637C912.077 191.967 910.856 191.633 909.551 191.633C908.245 191.633 907.04 191.951 905.936 192.587C904.831 193.223 903.928 194.16 903.225 195.398C902.555 196.603 902.221 198.042 902.221 199.716C902.221 201.389 902.555 202.862 903.225 204.134C903.928 205.372 904.831 206.326 905.936 206.996C907.074 207.665 908.279 208 909.551 208C910.856 208 912.077 207.682 913.215 207.046C914.353 206.376 915.257 205.439 915.927 204.234C916.596 202.996 916.931 201.523 916.931 199.816ZM956.73 199.214C956.73 200.218 956.663 201.122 956.529 201.925H936.196C936.363 203.933 937.066 205.506 938.305 206.644C939.543 207.782 941.066 208.351 942.873 208.351C945.484 208.351 947.342 207.23 948.446 204.987H956.027C955.224 207.665 953.684 209.874 951.408 211.614C949.132 213.321 946.338 214.175 943.024 214.175C940.346 214.175 937.937 213.589 935.794 212.418C933.686 211.213 932.029 209.523 930.824 207.347C929.653 205.171 929.067 202.661 929.067 199.816C929.067 196.938 929.653 194.411 930.824 192.235C931.996 190.06 933.636 188.386 935.744 187.215C937.853 186.043 940.279 185.458 943.024 185.458C945.668 185.458 948.028 186.027 950.103 187.165C952.212 188.303 953.835 189.926 954.973 192.034C956.144 194.11 956.73 196.503 956.73 199.214ZM949.45 197.206C949.417 195.398 948.764 193.959 947.492 192.888C946.22 191.783 944.664 191.231 942.823 191.231C941.083 191.231 939.61 191.767 938.405 192.838C937.234 193.875 936.514 195.331 936.246 197.206H949.45ZM977.273 185.508C980.587 185.508 983.265 186.562 985.306 188.671C987.348 190.746 988.369 193.658 988.369 197.406V213.723H981.34V198.36C981.34 196.151 980.788 194.461 979.683 193.29C978.579 192.085 977.073 191.482 975.165 191.482C973.224 191.482 971.684 192.085 970.546 193.29C969.441 194.461 968.889 196.151 968.889 198.36V213.723H961.86V185.909H968.889V189.374C969.826 188.169 971.014 187.231 972.454 186.562C973.926 185.859 975.533 185.508 977.273 185.508ZM993.245 199.816C993.245 196.938 993.831 194.428 995.002 192.285C996.174 190.11 997.797 188.436 999.872 187.265C1001.95 186.06 1004.32 185.458 1007 185.458C1010.45 185.458 1013.29 186.328 1015.54 188.068C1017.81 189.775 1019.34 192.185 1020.11 195.298H1012.52C1012.12 194.093 1011.44 193.156 1010.47 192.486C1009.53 191.783 1008.36 191.432 1006.95 191.432C1004.94 191.432 1003.35 192.168 1002.18 193.641C1001.01 195.08 1000.42 197.139 1000.42 199.816C1000.42 202.46 1001.01 204.519 1002.18 205.991C1003.35 207.431 1004.94 208.15 1006.95 208.15C1009.8 208.15 1011.65 206.878 1012.52 204.335H1020.11C1019.34 207.347 1017.81 209.74 1015.54 211.514C1013.26 213.288 1010.42 214.175 1007 214.175C1004.32 214.175 1001.95 213.589 999.872 212.418C997.797 211.213 996.174 209.539 995.002 207.397C993.831 205.222 993.245 202.695 993.245 199.816ZM1051.86 185.909L1034.64 226.877H1027.16L1033.19 213.02L1022.04 185.909H1029.92L1037.1 205.339L1044.38 185.909H1051.86Z" fill="black"/>
<rect y="398" width="325.437" height="113.858" rx="53.7913" fill="#FDDC5A"/>
<path d="M90.7142 436.957C94.3959 436.957 97.6258 437.676 100.404 439.116C103.215 440.555 105.374 442.613 106.88 445.291C108.42 447.935 109.19 451.014 109.19 454.529C109.19 458.043 108.42 461.122 106.88 463.766C105.374 466.377 103.215 468.402 100.404 469.841C97.6258 471.28 94.3959 472 90.7142 472H78.4642V436.957H90.7142ZM90.4632 466.026C94.1449 466.026 96.9899 465.021 98.9981 463.013C101.006 461.005 102.01 458.177 102.01 454.529C102.01 450.88 101.006 448.035 98.9981 445.994C96.9899 443.919 94.1449 442.881 90.4632 442.881H85.4929V466.026H90.4632ZM140.307 457.491C140.307 458.495 140.24 459.398 140.106 460.202H119.773C119.94 462.21 120.643 463.783 121.881 464.921C123.12 466.059 124.643 466.628 126.45 466.628C129.061 466.628 130.918 465.507 132.023 463.264H139.604C138.801 465.942 137.261 468.151 134.985 469.891C132.709 471.598 129.914 472.452 126.601 472.452C123.923 472.452 121.513 471.866 119.371 470.695C117.263 469.49 115.606 467.799 114.401 465.624C113.229 463.448 112.644 460.938 112.644 458.093C112.644 455.215 113.229 452.688 114.401 450.512C115.572 448.337 117.212 446.663 119.321 445.492C121.43 444.32 123.856 443.734 126.601 443.734C129.245 443.734 131.605 444.303 133.68 445.441C135.788 446.579 137.412 448.203 138.55 450.311C139.721 452.387 140.307 454.78 140.307 457.491ZM133.027 455.482C132.994 453.675 132.341 452.236 131.069 451.165C129.797 450.06 128.241 449.508 126.4 449.508C124.659 449.508 123.187 450.044 121.982 451.115C120.81 452.152 120.091 453.608 119.823 455.482H133.027ZM156.081 472.452C153.805 472.452 151.763 472.05 149.956 471.247C148.148 470.41 146.709 469.289 145.638 467.883C144.6 466.477 144.031 464.921 143.931 463.214H151.01C151.144 464.285 151.663 465.172 152.566 465.875C153.503 466.578 154.658 466.929 156.03 466.929C157.369 466.929 158.407 466.662 159.143 466.126C159.913 465.59 160.298 464.904 160.298 464.068C160.298 463.164 159.829 462.494 158.892 462.059C157.988 461.591 156.532 461.089 154.524 460.553C152.449 460.051 150.742 459.532 149.403 458.997C148.098 458.461 146.96 457.641 145.989 456.537C145.052 455.432 144.584 453.943 144.584 452.069C144.584 450.529 145.019 449.123 145.889 447.851C146.793 446.579 148.065 445.575 149.705 444.839C151.378 444.103 153.336 443.734 155.579 443.734C158.892 443.734 161.536 444.571 163.511 446.245C165.486 447.885 166.573 450.111 166.774 452.922H160.047C159.946 451.818 159.478 450.947 158.641 450.311C157.838 449.642 156.75 449.307 155.378 449.307C154.106 449.307 153.118 449.542 152.416 450.01C151.746 450.479 151.412 451.131 151.412 451.968C151.412 452.905 151.88 453.625 152.817 454.127C153.754 454.596 155.21 455.081 157.185 455.583C159.193 456.085 160.85 456.604 162.155 457.139C163.461 457.675 164.582 458.512 165.519 459.65C166.49 460.754 166.992 462.227 167.025 464.068C167.025 465.674 166.573 467.113 165.67 468.385C164.8 469.657 163.528 470.661 161.854 471.398C160.214 472.1 158.29 472.452 156.081 472.452ZM176.36 440.873C175.121 440.873 174.084 440.488 173.247 439.718C172.444 438.915 172.042 437.927 172.042 436.756C172.042 435.584 172.444 434.614 173.247 433.844C174.084 433.041 175.121 432.639 176.36 432.639C177.598 432.639 178.619 433.041 179.422 433.844C180.259 434.614 180.677 435.584 180.677 436.756C180.677 437.927 180.259 438.915 179.422 439.718C178.619 440.488 177.598 440.873 176.36 440.873ZM179.824 444.186V472H172.795V444.186H179.824ZM197.663 443.734C199.738 443.734 201.562 444.153 203.135 444.99C204.708 445.793 205.947 446.847 206.85 448.153V444.186H213.929V472.201C213.929 474.778 213.41 477.071 212.373 479.079C211.335 481.121 209.779 482.727 207.704 483.899C205.629 485.104 203.118 485.706 200.173 485.706C196.223 485.706 192.977 484.786 190.433 482.945C187.923 481.104 186.5 478.594 186.166 475.414H193.144C193.512 476.686 194.299 477.69 195.504 478.426C196.742 479.196 198.232 479.581 199.972 479.581C202.014 479.581 203.671 478.962 204.942 477.723C206.214 476.518 206.85 474.678 206.85 472.201V467.883C205.947 469.189 204.691 470.276 203.085 471.147C201.512 472.017 199.704 472.452 197.663 472.452C195.32 472.452 193.178 471.849 191.236 470.644C189.295 469.44 187.756 467.749 186.618 465.574C185.513 463.365 184.961 460.838 184.961 457.993C184.961 455.181 185.513 452.688 186.618 450.512C187.756 448.337 189.278 446.663 191.186 445.492C193.127 444.32 195.286 443.734 197.663 443.734ZM206.85 458.093C206.85 456.386 206.516 454.93 205.846 453.725C205.177 452.487 204.273 451.55 203.135 450.914C201.997 450.244 200.775 449.91 199.47 449.91C198.165 449.91 196.96 450.228 195.855 450.864C194.751 451.5 193.847 452.437 193.144 453.675C192.475 454.88 192.14 456.319 192.14 457.993C192.14 459.666 192.475 461.139 193.144 462.411C193.847 463.649 194.751 464.603 195.855 465.273C196.993 465.942 198.198 466.277 199.47 466.277C200.775 466.277 201.997 465.959 203.135 465.323C204.273 464.653 205.177 463.716 205.846 462.511C206.516 461.273 206.85 459.8 206.85 458.093ZM236.207 443.785C239.52 443.785 242.198 444.839 244.24 446.948C246.281 449.023 247.302 451.935 247.302 455.683V472H240.274V456.637C240.274 454.428 239.721 452.738 238.617 451.566C237.512 450.362 236.006 449.759 234.098 449.759C232.157 449.759 230.617 450.362 229.479 451.566C228.375 452.738 227.823 454.428 227.823 456.637V472H220.794V444.186H227.823V447.65C228.76 446.446 229.948 445.508 231.387 444.839C232.86 444.136 234.466 443.785 236.207 443.785Z" fill="black"/>
<rect x="565" y="828" width="325.437" height="113.858" rx="53.7913" fill="#FFA982"/>
<path d="M625.757 884.428C625.757 880.981 626.527 877.902 628.067 875.19C629.64 872.446 631.765 870.321 634.443 868.814C637.154 867.275 640.183 866.505 643.53 866.505C647.446 866.505 650.877 867.509 653.822 869.517C656.767 871.525 658.826 874.303 659.997 877.851H651.914C651.111 876.178 649.973 874.923 648.5 874.086C647.061 873.249 645.387 872.831 643.48 872.831C641.438 872.831 639.614 873.316 638.007 874.287C636.434 875.224 635.196 876.563 634.292 878.303C633.422 880.044 632.987 882.085 632.987 884.428C632.987 886.738 633.422 888.779 634.292 890.553C635.196 892.294 636.434 893.649 638.007 894.62C639.614 895.557 641.438 896.026 643.48 896.026C645.387 896.026 647.061 895.607 648.5 894.77C649.973 893.9 651.111 892.628 651.914 890.955H659.997C658.826 894.536 656.767 897.331 653.822 899.339C650.91 901.314 647.479 902.301 643.53 902.301C640.183 902.301 637.154 901.548 634.443 900.042C631.765 898.502 629.64 896.377 628.067 893.666C626.527 890.955 625.757 887.876 625.757 884.428ZM678.351 902.452C675.673 902.452 673.264 901.866 671.121 900.695C668.979 899.49 667.289 897.799 666.051 895.624C664.846 893.448 664.243 890.938 664.243 888.093C664.243 885.248 664.863 882.738 666.101 880.562C667.373 878.387 669.097 876.713 671.272 875.542C673.448 874.337 675.874 873.734 678.552 873.734C681.229 873.734 683.656 874.337 685.832 875.542C688.007 876.713 689.714 878.387 690.953 880.562C692.224 882.738 692.86 885.248 692.86 888.093C692.86 890.938 692.208 893.448 690.902 895.624C689.63 897.799 687.89 899.49 685.681 900.695C683.505 901.866 681.062 902.452 678.351 902.452ZM678.351 896.327C679.623 896.327 680.811 896.026 681.916 895.423C683.054 894.787 683.957 893.85 684.627 892.612C685.296 891.373 685.631 889.867 685.631 888.093C685.631 885.449 684.928 883.424 683.522 882.018C682.15 880.579 680.46 879.86 678.451 879.86C676.443 879.86 674.753 880.579 673.381 882.018C672.042 883.424 671.373 885.449 671.373 888.093C671.373 890.737 672.025 892.779 673.331 894.218C674.669 895.624 676.343 896.327 678.351 896.327ZM713.429 873.785C716.743 873.785 719.42 874.839 721.462 876.948C723.504 879.023 724.525 881.935 724.525 885.683V902H717.496V886.637C717.496 884.428 716.944 882.738 715.839 881.566C714.735 880.362 713.228 879.759 711.321 879.759C709.379 879.759 707.84 880.362 706.702 881.566C705.597 882.738 705.045 884.428 705.045 886.637V902H698.016V874.186H705.045V877.65C705.982 876.446 707.17 875.508 708.609 874.839C710.082 874.136 711.689 873.785 713.429 873.785ZM739.392 879.96V893.415C739.392 894.352 739.609 895.038 740.045 895.473C740.513 895.875 741.283 896.076 742.354 896.076H745.617V902H741.199C735.275 902 732.313 899.122 732.313 893.365V879.96H728.999V874.186H732.313V867.308H739.392V874.186H745.617V879.96H739.392ZM776.528 887.491C776.528 888.495 776.462 889.398 776.328 890.202H755.995C756.162 892.21 756.865 893.783 758.103 894.921C759.342 896.059 760.864 896.628 762.672 896.628C765.283 896.628 767.14 895.507 768.245 893.264H775.826C775.022 895.942 773.483 898.151 771.207 899.891C768.931 901.598 766.136 902.452 762.822 902.452C760.145 902.452 757.735 901.866 755.593 900.695C753.484 899.49 751.828 897.799 750.623 895.624C749.451 893.448 748.865 890.938 748.865 888.093C748.865 885.215 749.451 882.688 750.623 880.512C751.794 878.337 753.434 876.663 755.543 875.492C757.651 874.32 760.078 873.734 762.822 873.734C765.467 873.734 767.826 874.303 769.901 875.441C772.01 876.579 773.633 878.203 774.771 880.311C775.943 882.387 776.528 884.78 776.528 887.491ZM769.249 885.482C769.215 883.675 768.563 882.236 767.291 881.165C766.019 880.06 764.462 879.508 762.622 879.508C760.881 879.508 759.409 880.044 758.204 881.115C757.032 882.152 756.313 883.608 756.045 885.482H769.249ZM797.072 873.785C800.385 873.785 803.063 874.839 805.105 876.948C807.146 879.023 808.167 881.935 808.167 885.683V902H801.138V886.637C801.138 884.428 800.586 882.738 799.482 881.566C798.377 880.362 796.871 879.759 794.963 879.759C793.022 879.759 791.482 880.362 790.344 881.566C789.24 882.738 788.688 884.428 788.688 886.637V902H781.659V874.186H788.688V877.65C789.625 876.446 790.813 875.508 792.252 874.839C793.725 874.136 795.331 873.785 797.072 873.785ZM823.035 879.96V893.415C823.035 894.352 823.252 895.038 823.687 895.473C824.156 895.875 824.926 896.076 825.997 896.076H829.26V902H824.842C818.918 902 815.956 899.122 815.956 893.365V879.96H812.642V874.186H815.956V867.308H823.035V874.186H829.26V879.96H823.035Z" fill="black"/>
<defs>
<linearGradient id="paint0_linear_71_48" x1="564.5" y1="0" x2="564.5" y2="861" gradientUnits="userSpaceOnUse">
<stop stop-color="#D9ECFB"/>
<stop offset="1" stop-color="#FCE2F5"/>
</linearGradient>
</defs>
</svg>
