<svg width="150" height="142" viewBox="0 0 150 142" fill="none" xmlns="http://www.w3.org/2000/svg">
<path d="M145.312 121.667H18.75V6.08333C18.75 2.72229 16.6523 0 14.0625 0H4.6875C2.09766 0 0 2.72229 0 6.08333V133.833C0 140.552 4.19824 146 9.375 146H145.312C147.902 146 150 143.278 150 139.917V127.75C150 124.389 147.902 121.667 145.312 121.667ZM135.938 12.1667H101.35C95.0859 12.1667 91.9482 21.9951 96.3779 27.7438L105.87 40.0625L84.375 67.9622L62.8799 40.0664C59.2178 35.3138 53.2822 35.3138 49.623 40.0664L29.499 66.1829C27.668 68.5592 27.668 72.4107 29.499 74.787L36.126 83.3873C37.957 85.7636 40.9248 85.7636 42.7559 83.3873L56.25 65.8711L77.7451 93.767C81.4072 98.5196 87.3428 98.5196 91.002 93.767L119.127 57.267L128.619 69.5857C133.049 75.3345 140.622 71.2625 140.622 63.1336V18.25C140.625 14.889 138.527 12.1667 135.938 12.1667Z" fill="black"/>
</svg>
