<svg width="150" height="142" viewBox="0 0 150 142" fill="none" xmlns="http://www.w3.org/2000/svg">
<path d="M58.5938 78.1107H25.7812C19.5117 78.1107 16.377 85.4678 20.8008 89.8022L30.4395 98.642L1.37695 126.958C-0.439453 128.726 -0.439453 131.635 1.37695 133.403L8.81836 140.646C10.6348 142.413 13.623 142.413 15.4395 140.646L44.5312 112.329L53.6426 121.74C58.0664 126.046 65.625 122.994 65.625 116.892V84.9545C65.625 81.1619 62.4902 78.1107 58.5938 78.1107ZM91.4062 59.8607H124.219C130.488 59.8607 133.623 52.4752 129.199 48.1693L119.531 39.3295L148.623 11.0135C150.439 9.24551 150.439 6.33691 148.623 4.56895L141.182 -2.67402C139.365 -4.44199 136.377 -4.44199 134.561 -2.67402L105.469 25.642L96.3574 16.2318C91.9336 11.926 84.375 14.9771 84.375 21.0795V53.017C84.375 56.8096 87.5098 59.8607 91.4062 59.8607ZM119.531 98.642L129.199 89.7736C133.623 85.4678 130.488 78.1107 124.219 78.1107H91.4062C87.5098 78.1107 84.375 81.1619 84.375 84.9545V116.892C84.375 122.994 91.9629 126.046 96.3867 121.74L105.469 112.358L134.561 140.674C136.377 142.442 139.365 142.442 141.182 140.674L148.623 133.431C150.439 131.663 150.439 128.755 148.623 126.987L119.531 98.642ZM53.6133 16.2604L44.5312 25.642L15.4395 -2.67402C13.623 -4.44199 10.6348 -4.44199 8.81836 -2.67402L1.37695 4.56895C-0.439453 6.33691 -0.439453 9.24551 1.37695 11.0135L30.4688 39.3295L20.8008 48.1979C16.377 52.5037 19.5117 59.8607 25.7812 59.8607H58.5938C62.4902 59.8607 65.625 56.8096 65.625 53.017V21.0795C65.625 15.0057 58.0371 11.9545 53.6133 16.2604Z" fill="black"/>
</svg>
