<svg width="150" height="130" viewBox="0 0 150 130" fill="none" xmlns="http://www.w3.org/2000/svg">
<path d="M54.1667 0C46.3802 0 39.9219 5.19618 38.0729 12.2174C37.8646 12.2174 37.7083 12.1667 37.5 12.1667C28.3073 12.1667 20.8333 19.4413 20.8333 28.3889C20.8333 29.6056 20.9896 30.7969 21.276 31.9375C13.6719 34.9792 8.33333 42.2285 8.33333 50.6944C8.33333 53.8882 9.16667 56.8538 10.4948 59.5406C4.24479 63.0385 0 69.5274 0 77.0555C0 85.4962 5.3125 92.7455 12.8646 95.7871C12.6302 96.9531 12.5 98.1444 12.5 99.3611C12.5 109.449 20.8854 117.611 31.25 117.611C32.3177 117.611 33.3594 117.484 34.375 117.307C36.875 124.531 43.8021 129.778 52.0833 129.778C62.4479 129.778 70.8333 121.616 70.8333 111.528V16.2222C70.8333 7.27465 63.3594 0 54.1667 0ZM150 77.0555C150 69.5274 145.755 63.0385 139.505 59.5406C140.859 56.8538 141.667 53.8882 141.667 50.6944C141.667 42.2285 136.328 34.9792 128.724 31.9375C128.984 30.7969 129.167 29.6056 129.167 28.3889C129.167 19.4413 121.693 12.1667 112.5 12.1667C112.292 12.1667 112.109 12.2174 111.927 12.2174C110.078 5.19618 103.62 0 95.8333 0C86.6406 0 79.1667 7.2493 79.1667 16.2222V111.528C79.1667 121.616 87.5521 129.778 97.9167 129.778C106.198 129.778 113.125 124.531 115.625 117.307C116.641 117.484 117.682 117.611 118.75 117.611C129.115 117.611 137.5 109.449 137.5 99.3611C137.5 98.1444 137.37 96.9531 137.135 95.7871C144.687 92.7455 150 85.4962 150 77.0555Z" fill="black"/>
</svg>
